<svg version="1.1" id="Layer_1" xmlns="http://www.w3.org/2000/svg" xmlns:xlink="http://www.w3.org/1999/xlink" x="0px" y="0px"
	 width="100%" viewBox="0 0 512 512" enable-background="new 0 0 512 512" xml:space="preserve">
<path fill="transparent" opacity="1.000000" stroke="none" 
	d="
M1.000005,461.000000 
	C1.000000,307.761963 1.000000,154.523911 1.000000,1.000000 
	C80.355118,1.000000 159.710587,1.000000 239.795654,1.367321 
	C239.850906,2.146266 239.215912,2.824936 238.496536,2.930911 
	C212.770493,6.720699 190.393433,17.969818 170.976929,34.757336 
	C154.945419,48.618191 142.403046,65.327385 133.887985,85.046425 
	C123.419991,109.288055 119.819153,134.463028 123.185188,160.429230 
	C125.649055,179.435974 131.992462,197.303513 141.883270,213.976044 
	C154.391479,235.060623 171.115784,251.710236 192.169357,263.978760 
	C222.556198,281.686005 255.437317,286.981812 289.751465,280.738251 
	C312.238220,276.646667 332.660614,267.137878 350.927856,252.824783 
	C367.943268,239.492538 381.139801,223.262253 390.243835,203.965836 
	C395.325989,193.194031 398.249023,181.403564 402.433350,170.217590 
	C414.643280,182.236603 426.522217,194.153625 438.529907,205.939545 
	C440.456635,207.830658 440.351624,209.261658 439.333618,211.560226 
	C438.153198,214.225372 437.415131,217.193466 437.063446,220.100067 
	C435.557495,232.547623 440.124756,242.481491 449.789642,250.340271 
	C450.791412,251.154861 451.434082,253.436783 451.090271,254.731689 
	C440.121155,296.042633 428.985748,337.309418 417.965668,378.606934 
	C417.106384,381.827301 415.681549,382.969452 412.165253,383.127075 
	C398.544586,383.737671 384.643372,380.535400 370.995911,386.394989 
	C370.995911,384.062531 370.995911,382.248108 370.995911,380.433685 
	C370.995880,359.274536 370.997070,338.115417 370.995270,316.956268 
	C370.994446,307.187897 368.796783,305.006927 358.897034,305.006561 
	C267.929443,305.003235 176.961838,305.003235 85.994232,305.006775 
	C76.866875,305.007111 74.008461,307.820618 74.006569,316.812744 
	C73.999519,350.467407 73.940445,384.122375 74.089142,417.776398 
	C74.106316,421.663025 72.972229,423.816437 69.366631,425.413849 
	C63.140862,428.172089 57.113350,431.392670 51.077255,434.561371 
	C34.364273,443.335083 17.689745,452.182037 1.000005,461.000000 
z"/>
<path fill="#1A3752" opacity="1.000000" stroke="none" 
	d="
M1.000005,461.458069 
	C17.689745,452.182037 34.364273,443.335083 51.077255,434.561371 
	C57.113350,431.392670 63.140862,428.172089 69.366631,425.413849 
	C72.972229,423.816437 74.106316,421.663025 74.089142,417.776398 
	C73.940445,384.122375 73.999519,350.467407 74.006569,316.812744 
	C74.008461,307.820618 76.866875,305.007111 85.994232,305.006775 
	C176.961838,305.003235 267.929443,305.003235 358.897034,305.006561 
	C368.796783,305.006927 370.994446,307.187897 370.995270,316.956268 
	C370.997070,338.115417 370.995880,359.274536 370.995911,380.433685 
	C370.995911,382.248108 370.995911,384.062531 370.995911,386.394989 
	C384.643372,380.535400 398.544586,383.737671 412.165253,383.127075 
	C415.681549,382.969452 417.106384,381.827301 417.965668,378.606934 
	C428.985748,337.309418 440.121155,296.042633 451.090271,254.731689 
	C451.434082,253.436783 450.791412,251.154861 449.789642,250.340271 
	C440.124756,242.481491 435.557495,232.547623 437.063446,220.100067 
	C437.415131,217.193466 438.153198,214.225372 439.333618,211.560226 
	C440.351624,209.261658 440.456635,207.830658 438.529907,205.939545 
	C426.522217,194.153625 414.643280,182.236603 402.346466,169.876099 
	C401.191681,168.332123 400.529449,167.158936 399.615173,166.235199 
	C380.390442,146.810806 361.140076,127.411819 341.879913,108.022591 
	C341.089203,107.226578 340.154114,106.573929 338.294434,105.032181 
	C336.393677,108.531212 334.182404,111.421486 333.149139,114.684769 
	C321.541321,151.344757 310.138824,188.069672 298.622894,224.758865 
	C295.649139,234.233200 289.394928,235.753799 282.398926,228.814545 
	C276.365051,222.829559 270.270203,216.900238 264.412354,210.746399 
	C262.108246,208.325867 260.481628,207.802887 257.303833,209.699203 
	C239.203613,220.500519 217.823181,217.593689 202.751328,202.629700 
	C187.509872,187.497314 184.639465,166.253555 195.590088,147.713638 
	C197.315445,144.792572 196.912201,143.155640 194.626602,140.961075 
	C188.136963,134.729919 181.737488,128.394547 175.527618,121.885437 
	C169.942551,116.031227 171.472763,110.365341 179.045059,107.854424 
	C179.992844,107.540154 180.943268,107.233429 181.896240,106.935349 
	C218.276764,95.555962 254.678345,84.242844 291.004669,72.693008 
	C294.393341,71.615601 297.306061,69.041367 300.867920,66.905365 
	C299.032043,64.853706 298.074341,63.740505 297.069122,62.672047 
	C296.041748,61.580078 294.909424,60.582947 293.924835,59.455379 
	C290.633789,55.686333 290.638306,51.562973 293.879089,48.296318 
	C297.073425,45.076511 301.486877,44.899490 304.960968,48.386303 
	C307.033875,50.466797 308.415436,53.236156 309.960785,55.482224 
	C316.866791,48.848625 322.178528,43.826088 327.398773,38.710159 
	C332.859772,33.358307 336.466248,33.244003 341.870117,38.600304 
	C350.154846,46.812057 358.400177,55.063953 366.613373,63.347275 
	C371.973877,68.753601 371.976227,72.429031 366.618988,77.784554 
	C361.342834,83.059036 355.975952,88.242767 350.531799,93.581093 
	C351.451447,94.760651 351.886200,95.449944 352.445404,96.016403 
	C368.835052,112.618965 385.227905,129.218445 401.662537,145.776413 
	C402.549866,146.670410 403.804779,147.199585 405.041443,148.205292 
	C420.229858,163.609222 435.234650,178.737473 450.366486,193.737549 
	C451.434387,194.796127 453.498260,195.505722 454.997284,195.356400 
	C460.531586,194.805145 466.018585,193.166031 471.531494,193.128586 
	C488.228912,193.015182 503.193970,212.567154 499.540741,228.917725 
	C496.321320,243.326813 487.913910,252.388992 473.302155,255.321671 
	C470.105072,255.963348 468.362915,257.235138 467.414795,260.779327 
	C458.857910,292.766602 450.000793,324.673492 441.266510,356.613495 
	C438.921417,365.189117 436.695404,373.797302 434.251892,383.004089 
	C436.818542,383.004089 438.623688,383.004059 440.428864,383.004089 
	C454.080017,383.004211 467.734344,382.822632 481.381439,383.057678 
	C494.000671,383.274994 503.530304,388.956024 509.652374,400.173248 
	C510.444855,401.625336 511.868652,402.732849 513.000000,404.000000 
	C513.000000,435.354218 513.000000,466.708466 512.649597,498.530762 
	C508.829987,502.673737 505.363831,506.351471 501.889587,510.021637 
	C500.938721,511.026123 499.963837,512.007812 499.000000,513.000000 
	C358.312439,513.000000 217.624878,513.000000 76.466660,512.645752 
	C70.747498,509.226471 65.597977,505.974701 60.232792,503.129608 
	C40.527279,492.680023 20.750175,482.365387 1.000005,472.000000 
	C1.000000,468.638702 1.000000,465.277435 1.000005,461.458069 
M121.880417,321.869568 
	C120.252113,321.924530 118.623802,321.979492 116.065323,321.914032 
	C107.803131,321.914032 99.540932,321.914032 90.995857,321.914032 
	C90.995857,335.669098 90.995857,348.865906 90.995857,362.607208 
	C99.881844,362.607208 108.479759,362.607208 117.854950,362.796509 
	C119.420738,362.727173 120.986526,362.657806 123.497536,362.657471 
	C125.688530,362.648163 127.879532,362.638855 130.975662,362.779541 
	C135.007309,362.733124 139.038971,362.686737 143.994247,362.723907 
	C196.835999,362.712677 249.677750,362.701447 303.467407,363.087982 
	C307.731567,362.943054 311.995697,362.798096 317.085907,362.722260 
	C319.047058,362.690765 321.008209,362.659271 323.781433,363.023376 
	C325.549805,362.892792 327.318176,362.762177 330.010437,362.684174 
	C336.842987,362.692932 343.679688,362.563202 350.506256,362.769836 
	C353.830963,362.870483 354.814240,361.636719 354.768341,358.419434 
	C354.616211,347.756042 354.725586,337.089142 354.694916,326.423676 
	C354.690857,325.003876 354.457825,323.584747 354.324829,322.098267 
	C345.349579,322.098267 336.871063,322.098267 327.735107,322.083954 
	C326.413086,322.095673 325.091095,322.107391 322.757202,321.930939 
	C320.342194,321.983704 317.927216,322.036469 314.652374,322.099731 
	C310.914581,322.098480 307.176819,322.097198 302.460419,321.917511 
	C282.330078,321.904633 262.199738,321.867584 242.069427,321.884369 
	C209.131821,321.911896 176.194244,321.974426 142.303177,321.838928 
	C138.181549,321.901733 134.059937,321.964508 129.042603,321.898438 
	C126.918739,321.946564 124.794876,321.994690 121.880417,321.869568 
M123.618172,420.053864 
	C125.730331,420.029999 127.842491,420.006104 130.875732,420.154266 
	C134.989609,420.100891 139.103485,420.047516 144.120529,420.115753 
	C197.039368,420.079254 249.958206,420.042755 303.832184,420.155518 
	C312.241455,420.095856 320.650757,420.036224 329.985168,420.078522 
	C337.908936,420.078522 345.832733,420.078522 353.920685,420.078522 
	C354.225952,415.767792 354.659790,412.144531 354.704041,408.516510 
	C354.809570,399.870789 354.675568,391.222260 354.755859,382.575989 
	C354.785431,379.392059 352.843628,379.227386 350.484222,379.245850 
	C343.334229,379.301666 336.183746,379.297272 328.213837,378.998627 
	C326.493652,379.107483 324.773468,379.216339 322.178894,379.336304 
	C320.165894,379.317017 318.152924,379.297729 315.238098,378.969666 
	C311.042145,379.057678 306.846222,379.145721 301.758423,379.210541 
	C248.833054,379.247437 195.907700,379.284332 142.052261,379.226501 
	C138.071823,379.267120 134.091370,379.307739 129.182297,379.268768 
	C126.984329,379.324554 124.786354,379.380341 121.830902,379.269440 
	C120.259003,379.300903 118.687111,379.332397 116.165932,379.310822 
	C109.201096,379.296051 102.232071,379.418945 95.273201,379.207703 
	C91.860153,379.104065 90.604759,380.184021 90.666405,383.718964 
	C90.854301,394.494873 90.718369,405.276215 90.761253,416.055237 
	C90.766212,417.301819 91.102921,418.547089 91.311813,419.970062 
	C100.129250,419.970062 108.565460,419.970062 117.807137,420.173218 
	C119.442688,420.094421 121.078232,420.015625 123.618172,420.053864 
M91.889153,436.396362 
	C91.482018,438.062500 90.730713,439.726685 90.721237,441.395081 
	C90.631409,457.220886 90.667641,473.047455 90.667595,488.873779 
	C90.667595,491.473511 90.667603,494.073242 90.667603,496.657776 
	C208.303360,496.657776 325.307159,496.657776 442.362488,496.657776 
	C442.362488,476.401215 442.362488,456.489532 442.362488,436.298309 
	C325.647003,436.298309 209.240250,436.298309 91.889153,436.396362 
M200.145615,123.345886 
	C228.807449,152.008057 257.469299,180.670242 286.580902,209.782196 
	C295.559601,181.199615 305.025635,153.806870 312.618652,125.904457 
	C317.461792,108.107315 325.075897,92.920280 339.693115,81.485031 
	C343.698547,78.351524 347.443268,74.884720 350.479431,72.281082 
	C344.148193,65.781509 339.100037,60.599129 333.884735,55.245163 
	C325.516785,63.640797 317.030060,72.353645 308.280762,80.794327 
	C306.100922,82.897270 303.271240,84.745361 300.405212,85.654335 
	C266.950195,96.264755 233.429825,106.668999 199.933670,117.149933 
	C198.631577,117.557350 197.399170,118.187454 194.792267,119.272240 
	C196.950012,120.861465 198.296219,121.852974 200.145615,123.345886 
M402.499939,420.128326 
	C433.901611,420.128326 465.303284,420.128326 496.656494,420.128326 
	C497.714569,407.802979 491.134979,400.171143 479.650879,400.146088 
	C449.027313,400.079224 418.403320,400.069305 387.779816,400.149414 
	C376.277863,400.179504 369.522766,408.277161 371.205200,420.128326 
	C381.260406,420.128326 391.380157,420.128326 402.499939,420.128326 
M459.742615,489.439026 
	C459.742615,491.849854 459.742615,494.260712 459.742615,496.966736 
	C470.193939,496.966736 479.830078,497.110840 489.458710,496.904236 
	C494.081329,496.805054 496.877991,493.908234 496.921112,489.194427 
	C497.059692,474.046356 497.035095,458.895538 496.913727,443.747101 
	C496.879883,439.520325 494.351166,436.524811 490.202271,436.384125 
	C480.272491,436.047363 470.323578,436.275360 459.742432,436.275360 
	C459.742432,453.938599 459.742432,471.197235 459.742615,489.439026 
M30.798845,468.834686 
	C45.316189,476.408539 59.833534,483.982391 74.849518,491.816376 
	C74.849518,474.662781 74.849518,458.439758 74.849518,441.350006 
	C58.619583,449.845673 42.934956,458.055908 26.922531,466.437714 
	C28.237736,467.261169 29.209467,467.869568 30.798845,468.834686 
M215.607315,192.938934 
	C227.093918,201.006516 240.296722,202.179077 248.543884,195.533600 
	C242.023178,189.084518 235.514725,182.690506 229.055435,176.247208 
	C222.513382,169.721329 216.019943,163.146713 209.420593,156.508316 
	C201.875443,168.011581 204.246552,182.052032 215.607315,192.938934 
M453.223358,226.895203 
	C453.734436,228.294922 454.116608,229.759079 454.778473,231.083435 
	C457.959381,237.448441 465.048706,240.626022 471.998444,238.884583 
	C478.752594,237.192169 483.532135,230.764038 483.282532,223.708374 
	C483.001617,215.767685 475.762939,208.855621 467.903198,209.022980 
	C458.959717,209.213425 452.895782,216.206787 453.223358,226.895203 
z"/>
<path fill="#2EA2DB" opacity="1.000000" stroke="none" 
	d="
M404.888580,147.898590 
	C403.804779,147.199585 402.549866,146.670410 401.662537,145.776413 
	C385.227905,129.218445 368.835052,112.618965 352.445404,96.016403 
	C351.886200,95.449944 351.451447,94.760651 350.531799,93.581093 
	C355.975952,88.242767 361.342834,83.059036 366.618988,77.784554 
	C371.976227,72.429031 371.973877,68.753601 366.613373,63.347275 
	C358.400177,55.063953 350.154846,46.812057 341.870117,38.600304 
	C336.466248,33.244003 332.859772,33.358307 327.398773,38.710159 
	C322.178528,43.826088 316.866791,48.848625 309.960785,55.482224 
	C308.415436,53.236156 307.033875,50.466797 304.960968,48.386303 
	C301.486877,44.899490 297.073425,45.076511 293.879089,48.296318 
	C290.638306,51.562973 290.633789,55.686333 293.924835,59.455379 
	C294.909424,60.582947 296.041748,61.580078 297.069122,62.672047 
	C298.074341,63.740505 299.032043,64.853706 300.867920,66.905365 
	C297.306061,69.041367 294.393341,71.615601 291.004669,72.693008 
	C254.678345,84.242844 218.276764,95.555962 181.896240,106.935349 
	C180.943268,107.233429 179.992844,107.540154 179.045059,107.854424 
	C171.472763,110.365341 169.942551,116.031227 175.527618,121.885437 
	C181.737488,128.394547 188.136963,134.729919 194.626602,140.961075 
	C196.912201,143.155640 197.315445,144.792572 195.590088,147.713638 
	C184.639465,166.253555 187.509872,187.497314 202.751328,202.629700 
	C217.823181,217.593689 239.203613,220.500519 257.303833,209.699203 
	C260.481628,207.802887 262.108246,208.325867 264.412354,210.746399 
	C270.270203,216.900238 276.365051,222.829559 282.398926,228.814545 
	C289.394928,235.753799 295.649139,234.233200 298.622894,224.758865 
	C310.138824,188.069672 321.541321,151.344757 333.149139,114.684769 
	C334.182404,111.421486 336.393677,108.531212 338.294434,105.032181 
	C340.154114,106.573929 341.089203,107.226578 341.879913,108.022591 
	C361.140076,127.411819 380.390442,146.810806 399.615173,166.235199 
	C400.529449,167.158936 401.191681,168.332123 402.058167,169.730652 
	C398.249023,181.403564 395.325989,193.194031 390.243835,203.965836 
	C381.139801,223.262253 367.943268,239.492538 350.927856,252.824783 
	C332.660614,267.137878 312.238220,276.646667 289.751465,280.738251 
	C255.437317,286.981812 222.556198,281.686005 192.169357,263.978760 
	C171.115784,251.710236 154.391479,235.060623 141.883270,213.976044 
	C131.992462,197.303513 125.649055,179.435974 123.185188,160.429230 
	C119.819153,134.463028 123.419991,109.288055 133.887985,85.046425 
	C142.403046,65.327385 154.945419,48.618191 170.976929,34.757336 
	C190.393433,17.969818 212.770493,6.720699 238.496536,2.930911 
	C239.215912,2.824936 239.850906,2.146266 240.262634,1.367321 
	C255.354233,1.000000 270.708466,1.000000 286.268921,1.367221 
	C286.982300,2.131393 287.432007,2.735001 288.005188,2.894288 
	C296.553864,5.269899 305.328644,7.008008 313.642059,10.022036 
	C342.908020,20.632435 365.491119,39.552357 382.405945,65.693550 
	C398.656891,90.808708 405.160675,118.373817 404.888580,147.898590 
M240.432678,249.017059 
	C242.359238,249.017059 244.285782,249.017059 246.279999,249.017059 
	C246.279999,243.299057 246.279999,238.294800 246.279999,233.344910 
	C241.387421,233.344910 236.985764,233.344910 232.383942,233.344910 
	C232.383942,238.602631 232.383942,243.496933 232.383942,249.017090 
	C234.944672,249.017090 237.216385,249.017090 240.432678,249.017059 
M178.110825,193.998352 
	C173.485977,196.196793 168.861130,198.395218 163.886505,200.759903 
	C166.720657,205.617279 168.937836,209.417252 171.303772,213.472168 
	C176.206406,210.654099 180.492584,208.190384 185.162140,205.506287 
	C182.871017,201.600220 180.785294,198.044342 178.110825,193.998352 
M201.073074,221.423691 
	C200.202805,221.610855 198.869095,221.505188 198.536255,222.031937 
	C196.083359,225.914078 193.830231,229.922455 191.319611,234.224564 
	C195.709351,236.766129 199.523315,238.974319 203.793015,241.446365 
	C206.555145,236.673218 209.073822,232.320755 211.802460,227.605484 
	C208.000641,225.413193 204.858688,223.601425 201.073074,221.423691 
M156.116165,161.758881 
	C156.116165,165.356720 156.116165,168.954544 156.116165,172.695160 
	C161.736603,172.695160 166.638031,172.695160 171.733826,172.695160 
	C171.733826,168.007339 171.733826,163.635330 171.733826,158.784348 
	C167.073853,158.784348 162.778961,158.680435 158.497818,158.876617 
	C157.692245,158.913498 156.941483,160.146942 156.116165,161.758881 
z"/>
<path fill="transparent" opacity="1.000000" stroke="none" 
	d="
M405.041443,148.205292 
	C405.160675,118.373817 398.656891,90.808708 382.405945,65.693550 
	C365.491119,39.552357 342.908020,20.632435 313.642059,10.022036 
	C305.328644,7.008008 296.553864,5.269899 288.005188,2.894288 
	C287.432007,2.735001 286.982300,2.131393 286.737579,1.367221 
	C362.280914,1.000000 437.561859,1.000000 513.000000,1.000000 
	C513.000000,135.020859 513.000000,269.041779 513.000000,403.531342 
	C511.868652,402.732849 510.444855,401.625336 509.652374,400.173248 
	C503.530304,388.956024 494.000671,383.274994 481.381439,383.057678 
	C467.734344,382.822632 454.080017,383.004211 440.428864,383.004089 
	C438.623688,383.004059 436.818542,383.004089 434.251892,383.004089 
	C436.695404,373.797302 438.921417,365.189117 441.266510,356.613495 
	C450.000793,324.673492 458.857910,292.766602 467.414795,260.779327 
	C468.362915,257.235138 470.105072,255.963348 473.302155,255.321671 
	C487.913910,252.388992 496.321320,243.326813 499.540741,228.917725 
	C503.193970,212.567154 488.228912,193.015182 471.531494,193.128586 
	C466.018585,193.166031 460.531586,194.805145 454.997284,195.356400 
	C453.498260,195.505722 451.434387,194.796127 450.366486,193.737549 
	C435.234650,178.737473 420.229858,163.609222 405.041443,148.205292 
z"/>
<path fill="transparent" opacity="1.000000" stroke="none" 
	d="
M1.000005,472.468628 
	C20.750175,482.365387 40.527279,492.680023 60.232792,503.129608 
	C65.597977,505.974701 70.747498,509.226471 75.998001,512.645752 
	C51.094654,513.000000 26.189308,513.000000 1.000000,513.000000 
	C1.000000,499.647125 1.000000,486.292206 1.000005,472.468628 
z"/>
<path fill="transparent" opacity="1.000000" stroke="none" 
	d="
M499.474121,513.000000 
	C499.963837,512.007812 500.938721,511.026123 501.889587,510.021637 
	C505.363831,506.351471 508.829987,502.673737 512.649597,498.999390 
	C513.000000,503.590607 513.000000,508.181183 513.000000,513.000000 
	C508.651093,513.000000 504.299652,513.000000 499.474121,513.000000 
z"/>
<path fill="#DFE5E8" opacity="1.000000" stroke="none" 
	d="
M92.361320,436.347351 
	C209.240250,436.298309 325.647003,436.298309 442.362488,436.298309 
	C442.362488,456.489532 442.362488,476.401215 442.362488,496.657776 
	C325.307159,496.657776 208.303360,496.657776 90.667603,496.657776 
	C90.667603,494.073242 90.667595,491.473511 90.667595,488.873779 
	C90.667641,473.047455 90.631409,457.220886 90.721237,441.395081 
	C90.730713,439.726685 91.482018,438.062500 92.361320,436.347351 
M238.500000,453.983276 
	C197.175232,453.983276 155.850464,453.983215 114.525703,453.984100 
	C113.192703,453.984131 111.618210,453.549408 110.585388,454.109131 
	C109.167488,454.877594 107.257439,456.321411 107.139366,457.619598 
	C106.718475,462.247437 106.961937,466.936127 106.962532,471.601776 
	C106.963478,479.032135 106.966393,479.037567 114.218292,479.037689 
	C205.699173,479.038940 297.180054,479.038574 388.660919,479.038544 
	C399.325348,479.038544 409.996155,478.821472 420.651428,479.133728 
	C425.637238,479.279816 427.210938,477.222290 427.004517,472.651947 
	C426.831757,468.827271 426.972931,464.988495 426.970367,461.155975 
	C426.965546,453.992340 426.964111,453.984741 419.962280,453.984497 
	C359.808197,453.982422 299.654083,453.983276 238.500000,453.983276 
z"/>
<path fill="#2EA1DA" opacity="1.000000" stroke="none" 
	d="
M302.877045,420.006256 
	C249.958206,420.042755 197.039368,420.079254 143.708282,419.590149 
	C143.191467,405.816803 143.086899,392.569031 142.982330,379.321259 
	C195.907700,379.284332 248.833054,379.247437 302.233032,379.667633 
	C302.770447,393.192322 302.833282,406.259918 302.891602,419.497192 
	C302.887085,419.666870 302.877045,420.006256 302.877045,420.006256 
z"/>
<path fill="#EF6052" opacity="1.000000" stroke="none" 
	d="
M302.519531,362.690216 
	C249.677750,362.701447 196.835999,362.712677 143.590118,362.242920 
	C143.209534,348.515350 143.233093,335.268738 143.256653,322.022156 
	C176.194244,321.974426 209.131821,321.911896 242.069427,321.884369 
	C262.199738,321.867584 282.330078,321.904633 302.739136,322.434204 
	C302.851715,336.197327 302.685608,349.443787 302.519531,362.690216 
z"/>
<path fill="#FABE5E" opacity="1.000000" stroke="none" 
	d="
M199.894028,123.095184 
	C198.296219,121.852974 196.950012,120.861465 194.792267,119.272240 
	C197.399170,118.187454 198.631577,117.557350 199.933670,117.149933 
	C233.429825,106.668999 266.950195,96.264755 300.405212,85.654335 
	C303.271240,84.745361 306.100922,82.897270 308.280762,80.794327 
	C317.030060,72.353645 325.516785,63.640797 333.884735,55.245163 
	C339.100037,60.599129 344.148193,65.781509 350.479431,72.281082 
	C347.443268,74.884720 343.698547,78.351524 339.693115,81.485031 
	C325.075897,92.920280 317.461792,108.107315 312.618652,125.904457 
	C305.025635,153.806870 295.559601,181.199615 286.580902,209.782196 
	C257.469299,180.670242 228.807449,152.008057 199.894028,123.095184 
M272.267395,113.735878 
	C257.307068,118.482315 242.346725,123.228760 228.328018,127.676453 
	C244.768356,144.122086 261.121521,160.480515 277.528839,176.893097 
	C281.512543,164.407272 284.994873,151.023117 290.105682,138.292755 
	C293.875153,128.903458 292.755859,122.457481 284.665283,116.228271 
	C280.773560,113.231911 277.810333,110.720314 272.267395,113.735878 
z"/>
<path fill="#FDFDFD" opacity="1.000000" stroke="none" 
	d="
M401.999939,420.128326 
	C391.380157,420.128326 381.260406,420.128326 371.205200,420.128326 
	C369.522766,408.277161 376.277863,400.179504 387.779816,400.149414 
	C418.403320,400.069305 449.027313,400.079224 479.650879,400.146088 
	C491.134979,400.171143 497.714569,407.802979 496.656494,420.128326 
	C465.303284,420.128326 433.901611,420.128326 401.999939,420.128326 
z"/>
<path fill="#F06051" opacity="1.000000" stroke="none" 
	d="
M459.742523,488.947449 
	C459.742432,471.197235 459.742432,453.938599 459.742432,436.275360 
	C470.323578,436.275360 480.272491,436.047363 490.202271,436.384125 
	C494.351166,436.524811 496.879883,439.520325 496.913727,443.747101 
	C497.035095,458.895538 497.059692,474.046356 496.921112,489.194427 
	C496.877991,493.908234 494.081329,496.805054 489.458710,496.904236 
	C479.830078,497.110840 470.193939,496.966736 459.742615,496.966736 
	C459.742615,494.260712 459.742615,491.849854 459.742523,488.947449 
z"/>
<path fill="#FBBE5E" opacity="1.000000" stroke="none" 
	d="
M30.490021,468.656311 
	C29.209467,467.869568 28.237736,467.261169 26.922531,466.437714 
	C42.934956,458.055908 58.619583,449.845673 74.849518,441.350006 
	C74.849518,458.439758 74.849518,474.662781 74.849518,491.816376 
	C59.833534,483.982391 45.316189,476.408539 30.490021,468.656311 
z"/>
<path fill="#EF6051" opacity="1.000000" stroke="none" 
	d="
M117.077667,362.607208 
	C108.479759,362.607208 99.881844,362.607208 90.995857,362.607208 
	C90.995857,348.865906 90.995857,335.669098 90.995857,321.914032 
	C99.540932,321.914032 107.803131,321.914032 116.517303,322.440247 
	C117.005409,336.180054 117.041534,349.393646 117.077667,362.607208 
z"/>
<path fill="#2EA1DA" opacity="1.000000" stroke="none" 
	d="
M117.001671,419.970062 
	C108.565460,419.970062 100.129250,419.970062 91.311813,419.970062 
	C91.102921,418.547089 90.766212,417.301819 90.761253,416.055237 
	C90.718369,405.276215 90.854301,394.494873 90.666405,383.718964 
	C90.604759,380.184021 91.860153,379.104065 95.273201,379.207703 
	C102.232071,379.418945 109.201096,379.296051 116.606842,379.778351 
	C117.032387,393.487274 117.017029,406.728668 117.001671,419.970062 
z"/>
<path fill="#EC5F51" opacity="1.000000" stroke="none" 
	d="
M328.392548,322.098267 
	C336.871063,322.098267 345.349579,322.098267 354.324829,322.098267 
	C354.457825,323.584747 354.690857,325.003876 354.694916,326.423676 
	C354.725586,337.089142 354.616211,347.756042 354.768341,358.419434 
	C354.814240,361.636719 353.830963,362.870483 350.506256,362.769836 
	C343.679688,362.563202 336.842987,362.692932 329.490662,362.220337 
	C328.965027,358.279388 329.003021,354.801514 328.944885,351.325287 
	C328.781982,341.582581 328.579437,331.840546 328.392548,322.098267 
z"/>
<path fill="#2EA0D8" opacity="1.000000" stroke="none" 
	d="
M329.033478,379.316315 
	C336.183746,379.297272 343.334229,379.301666 350.484222,379.245850 
	C352.843628,379.227386 354.785431,379.392059 354.755859,382.575989 
	C354.675568,391.222260 354.809570,399.870789 354.704041,408.516510 
	C354.659790,412.144531 354.225952,415.767792 353.920685,420.078522 
	C345.832733,420.078522 337.908936,420.078522 329.508850,419.768890 
	C329.013306,419.287598 328.994019,419.115967 328.965240,418.479553 
	C328.981659,405.115295 329.007568,392.215820 329.033478,379.316315 
z"/>
<path fill="#FCFDFD" opacity="1.000000" stroke="none" 
	d="
M215.331009,192.711349 
	C204.246552,182.052032 201.875443,168.011581 209.420593,156.508316 
	C216.019943,163.146713 222.513382,169.721329 229.055435,176.247208 
	C235.514725,182.690506 242.023178,189.084518 248.543884,195.533600 
	C240.296722,202.179077 227.093918,201.006516 215.331009,192.711349 
z"/>
<path fill="#FCFDFD" opacity="1.000000" stroke="none" 
	d="
M453.169739,226.485825 
	C452.895782,216.206787 458.959717,209.213425 467.903198,209.022980 
	C475.762939,208.855621 483.001617,215.767685 483.282532,223.708374 
	C483.532135,230.764038 478.752594,237.192169 471.998444,238.884583 
	C465.048706,240.626022 457.959381,237.448441 454.778473,231.083435 
	C454.116608,229.759079 453.734436,228.294922 453.169739,226.485825 
z"/>
<path fill="#FFFDFD" opacity="1.000000" stroke="none" 
	d="
M302.993469,362.889099 
	C302.685608,349.443787 302.851715,336.197327 303.228424,322.523438 
	C307.176819,322.097198 310.914581,322.098480 315.255737,322.533783 
	C315.992706,336.196259 316.126282,349.424713 316.259857,362.653137 
	C311.995697,362.798096 307.731567,362.943054 302.993469,362.889099 
z"/>
<path fill="#FDFEFE" opacity="1.000000" stroke="none" 
	d="
M142.517303,379.273865 
	C143.086899,392.569031 143.191467,405.816803 143.256683,419.529358 
	C139.103485,420.047516 134.989609,420.100891 130.388763,419.602173 
	C129.971512,405.816162 130.041229,392.582245 130.110931,379.348358 
	C134.091370,379.307739 138.071823,379.267120 142.517303,379.273865 
z"/>
<path fill="#FEFDFD" opacity="1.000000" stroke="none" 
	d="
M142.779907,321.930542 
	C143.233093,335.268738 143.209534,348.515350 143.128296,362.201141 
	C139.038971,362.686737 135.007309,362.733124 130.479721,362.263214 
	C129.968613,348.507050 129.953461,335.267181 129.938293,322.027344 
	C134.059937,321.964508 138.181549,321.901733 142.779907,321.930542 
z"/>
<path fill="#FFFFFF" opacity="1.000000" stroke="none" 
	d="
M302.896118,419.327515 
	C302.833282,406.259918 302.770447,393.192322 302.678955,379.679230 
	C306.846222,379.145721 311.042145,379.057678 315.648926,379.567017 
	C316.059723,393.089355 316.059723,406.014313 316.059723,419.327515 
	C311.181000,419.327515 307.038544,419.327515 302.896118,419.327515 
z"/>
<path fill="#42AADD" opacity="1.000000" stroke="none" 
	d="
M302.891602,419.497192 
	C307.038544,419.327515 311.181000,419.327515 316.059723,419.327515 
	C316.059723,406.014313 316.059723,393.089355 316.099823,379.721436 
	C318.152924,379.297729 320.165894,379.317017 322.668396,379.772430 
	C323.157928,393.055847 323.157928,405.903168 323.157928,419.313599 
	C325.487610,419.165710 327.231171,419.054993 328.974762,418.944305 
	C328.994019,419.115967 329.013306,419.287598 329.046295,419.717896 
	C320.650757,420.036224 312.241455,420.095856 303.354614,420.080872 
	C302.877045,420.006256 302.887085,419.666870 302.891602,419.497192 
z"/>
<path fill="#EF6456" opacity="1.000000" stroke="none" 
	d="
M316.672882,362.687683 
	C316.126282,349.424713 315.992706,336.196259 315.685669,322.528534 
	C317.927216,322.036469 320.342194,321.983704 323.064148,322.457977 
	C323.237183,336.199280 323.103271,349.413513 322.969360,362.627808 
	C321.008209,362.659271 319.047058,362.690765 316.672882,362.687683 
z"/>
<path fill="#34A4DB" opacity="1.000000" stroke="none" 
	d="
M129.646606,379.308563 
	C130.041229,392.582245 129.971512,405.816162 129.928223,419.516113 
	C127.842491,420.006104 125.730331,420.029999 123.173332,419.528442 
	C122.681786,405.814026 122.635086,392.625092 122.588379,379.436127 
	C124.786354,379.380341 126.984329,379.324554 129.646606,379.308563 
z"/>
<path fill="#EF6456" opacity="1.000000" stroke="none" 
	d="
M129.490448,321.962891 
	C129.953461,335.267181 129.968613,348.507050 130.027161,362.188232 
	C127.879532,362.638855 125.688530,362.648163 123.068008,362.179932 
	C122.649323,348.482544 122.660164,335.262665 122.671005,322.042786 
	C124.794876,321.994690 126.918739,321.946564 129.490448,321.962891 
z"/>
<path fill="#F0F8FC" opacity="1.000000" stroke="none" 
	d="
M122.209641,379.352783 
	C122.635086,392.625092 122.681786,405.814026 122.721138,419.469910 
	C121.078232,420.015625 119.442688,420.094421 117.404404,420.071655 
	C117.017029,406.728668 117.032387,393.487274 117.081482,379.804871 
	C118.687111,379.332397 120.259003,379.300903 122.209641,379.352783 
z"/>
<path fill="#FEF4F3" opacity="1.000000" stroke="none" 
	d="
M323.375397,362.825562 
	C323.103271,349.413513 323.237183,336.199280 323.570068,322.552063 
	C325.091095,322.107391 326.413086,322.095673 328.063843,322.091125 
	C328.579437,331.840546 328.781982,341.582581 328.944885,351.325287 
	C329.003021,354.801514 328.965027,358.279388 329.028717,362.194031 
	C327.318176,362.762177 325.549805,362.892792 323.375397,362.825562 
z"/>
<path fill="#FDF3F2" opacity="1.000000" stroke="none" 
	d="
M122.275711,321.956177 
	C122.660164,335.262665 122.649323,348.482544 122.595398,362.145447 
	C120.986526,362.657806 119.420738,362.727173 117.466309,362.701843 
	C117.041534,349.393646 117.005409,336.180054 116.982391,322.500488 
	C118.623802,321.979492 120.252113,321.924530 122.275711,321.956177 
z"/>
<path fill="#F1F9FD" opacity="1.000000" stroke="none" 
	d="
M328.965240,418.479553 
	C327.231171,419.054993 325.487610,419.165710 323.157928,419.313599 
	C323.157928,405.903168 323.157928,393.055847 323.105591,379.766907 
	C324.773468,379.216339 326.493652,379.107483 328.623657,379.157471 
	C329.007568,392.215820 328.981659,405.115295 328.965240,418.479553 
z"/>
<path fill="#1A3A56" opacity="1.000000" stroke="none" 
	d="
M239.960388,249.017075 
	C237.216385,249.017090 234.944672,249.017090 232.383942,249.017090 
	C232.383942,243.496933 232.383942,238.602631 232.383942,233.344910 
	C236.985764,233.344910 241.387421,233.344910 246.279999,233.344910 
	C246.279999,238.294800 246.279999,243.299057 246.279999,249.017059 
	C244.285782,249.017059 242.359238,249.017059 239.960388,249.017075 
z"/>
<path fill="#1A3A56" opacity="1.000000" stroke="none" 
	d="
M178.405197,194.243408 
	C180.785294,198.044342 182.871017,201.600220 185.162140,205.506287 
	C180.492584,208.190384 176.206406,210.654099 171.303772,213.472168 
	C168.937836,209.417252 166.720657,205.617279 163.886505,200.759903 
	C168.861130,198.395218 173.485977,196.196793 178.405197,194.243408 
z"/>
<path fill="#1A3955" opacity="1.000000" stroke="none" 
	d="
M201.394897,221.606659 
	C204.858688,223.601425 208.000641,225.413193 211.802460,227.605484 
	C209.073822,232.320755 206.555145,236.673218 203.793015,241.446365 
	C199.523315,238.974319 195.709351,236.766129 191.319611,234.224564 
	C193.830231,229.922455 196.083359,225.914078 198.536255,222.031937 
	C198.869095,221.505188 200.202805,221.610855 201.394897,221.606659 
z"/>
<path fill="#193753" opacity="1.000000" stroke="none" 
	d="
M156.140793,161.293549 
	C156.941483,160.146942 157.692245,158.913498 158.497818,158.876617 
	C162.778961,158.680435 167.073853,158.784348 171.733826,158.784348 
	C171.733826,163.635330 171.733826,168.007339 171.733826,172.695160 
	C166.638031,172.695160 161.736603,172.695160 156.116165,172.695160 
	C156.116165,168.954544 156.116165,165.356720 156.140793,161.293549 
z"/>
<path fill="#FFFFFF" opacity="1.000000" stroke="none" 
	d="
M239.000000,453.983246 
	C299.654083,453.983276 359.808197,453.982422 419.962280,453.984497 
	C426.964111,453.984741 426.965546,453.992340 426.970367,461.155975 
	C426.972931,464.988495 426.831757,468.827271 427.004517,472.651947 
	C427.210938,477.222290 425.637238,479.279816 420.651428,479.133728 
	C409.996155,478.821472 399.325348,479.038544 388.660919,479.038544 
	C297.180054,479.038574 205.699173,479.038940 114.218292,479.037689 
	C106.966393,479.037567 106.963478,479.032135 106.962532,471.601776 
	C106.961937,466.936127 106.718475,462.247437 107.139366,457.619598 
	C107.257439,456.321411 109.167488,454.877594 110.585388,454.109131 
	C111.618210,453.549408 113.192703,453.984131 114.525703,453.984100 
	C155.850464,453.983215 197.175232,453.983276 239.000000,453.983246 
z"/>
<path fill="#FFFEFD" opacity="1.000000" stroke="none" 
	d="
M272.641113,113.592133 
	C277.810333,110.720314 280.773560,113.231911 284.665283,116.228271 
	C292.755859,122.457481 293.875153,128.903458 290.105682,138.292755 
	C284.994873,151.023117 281.512543,164.407272 277.528839,176.893097 
	C261.121521,160.480515 244.768356,144.122086 228.328018,127.676453 
	C242.346725,123.228760 257.307068,118.482315 272.641113,113.592133 
z"/>
</svg>